<svg width="128" height="128" viewBox="0 0 96 120" fill="none" xmlns="http://www.w3.org/2000/svg">
  <!-- White Playing Card Body -->
  <rect x="2" y="2" width="92" height="116" rx="10" fill="#FFFFFF" stroke="#CBD5E1" stroke-width="2.5"/>
  <rect x="5" y="5" width="86" height="110" rx="8" stroke="#F1F5F9" stroke-width="1" fill="none"/>

  <!-- Center Modern Joker Head -->
  <g transform="translate(48, 60)">
    <!-- Jester Collar (Wider & longer central triangle) -->
    <path d="M-22 12 L-16 21 L-10 13 L0 33 L10 13 L16 21 L22 12 Z" fill="#7C3AED"/>

    <!-- Face Base -->
    <path d="M-18 2 C-18 22 18 22 18 2 Z" fill="#FDE047"/>
    
    <!-- Minimalist Eyes -->
    <circle cx="-6" cy="9" r="2.2" fill="#1E293B"/>
    <circle cx="6" cy="9" r="2.2" fill="#1E293B"/>

    <!-- Jester Hat 3 Peaks -->
    <!-- Left Peak (Red) -->
    <path d="M-18 2 C-30 -16 -10 -24 -5 -7 Z" fill="#DC2626"/>
    <circle cx="-23" cy="-19" r="3.5" fill="#F59E0B"/>

    <!-- Center Peak (Gold) -->
    <path d="M-7 2 C-5 -28 5 -28 7 2 Z" fill="#F59E0B"/>
    <circle cx="0" cy="-25" r="3.5" fill="#F59E0B"/>

    <!-- Right Peak (Blue) -->
    <path d="M18 2 C30 -16 10 -24 5 -7 Z" fill="#2563EB"/>
    <circle cx="23" cy="-19" r="3.5" fill="#F59E0B"/>
  </g>
</svg>
